<svg width="20" height="19" viewBox="0 0 20 19" fill="none" xmlns="http://www.w3.org/2000/svg">
<path d="M11.8333 17.55V11.9917C11.8333 11.8392 11.8913 11.6929 11.9944 11.5851C12.0976 11.4772 12.2375 11.4167 12.3833 11.4167H17.7C17.8459 11.4167 17.9858 11.4772 18.0889 11.5851C18.1921 11.6929 18.25 11.8392 18.25 11.9917V17.55C18.25 17.7025 18.1921 17.8488 18.0889 17.9566C17.9858 18.0644 17.8459 18.125 17.7 18.125H12.3833C12.2375 18.125 12.0976 18.0644 11.9944 17.9566C11.8913 17.8488 11.8333 17.7025 11.8333 17.55ZM1.75 17.55V11.9917C1.75 11.8392 1.80795 11.6929 1.91109 11.5851C2.01424 11.4772 2.15413 11.4167 2.3 11.4167H7.61667C7.76254 11.4167 7.90243 11.4772 8.00558 11.5851C8.10872 11.6929 8.16667 11.8392 8.16667 11.9917V17.55C8.16667 17.7025 8.10872 17.8488 8.00558 17.9566C7.90243 18.0644 7.76254 18.125 7.61667 18.125H2.3C2.15413 18.125 2.01424 18.0644 1.91109 17.9566C1.80795 17.8488 1.75 17.7025 1.75 17.55ZM11.8333 7.00833V1.45C11.8333 1.2975 11.8913 1.15125 11.9944 1.04341C12.0976 0.93558 12.2375 0.875 12.3833 0.875H17.7C17.8459 0.875 17.9858 0.93558 18.0889 1.04341C18.1921 1.15125 18.25 1.2975 18.25 1.45V7.00833C18.25 7.16083 18.1921 7.30709 18.0889 7.41492C17.9858 7.52275 17.8459 7.58333 17.7 7.58333H12.3833C12.2375 7.58333 12.0976 7.52275 11.9944 7.41492C11.8913 7.30709 11.8333 7.16083 11.8333 7.00833ZM1.75 7.00833V1.45C1.75 1.2975 1.80795 1.15125 1.91109 1.04341C2.01424 0.93558 2.15413 0.875 2.3 0.875H7.61667C7.76254 0.875 7.90243 0.93558 8.00558 1.04341C8.10872 1.15125 8.16667 1.2975 8.16667 1.45V7.00833C8.16667 7.16083 8.10872 7.30709 8.00558 7.41492C7.90243 7.52275 7.76254 7.58333 7.61667 7.58333H2.3C2.15413 7.58333 2.01424 7.52275 1.91109 7.41492C1.80795 7.30709 1.75 7.16083 1.75 7.00833Z" stroke="#374151" stroke-width="1.75"/>
</svg>
