<svg width="18" height="22" viewBox="0 0 18 22" fill="none" xmlns="http://www.w3.org/2000/svg">
<path d="M9 4L9.53 3.47C9.38937 3.32955 9.19875 3.25066 9 3.25066C8.80125 3.25066 8.61063 3.32955 8.47 3.47L9 4ZM9 12L8.47 12.53C8.61063 12.6705 8.80125 12.7493 9 12.7493C9.19875 12.7493 9.38937 12.6705 9.53 12.53L9 12ZM6.47 5.47C6.33752 5.61217 6.2654 5.80022 6.26882 5.99452C6.27225 6.18882 6.35097 6.37421 6.48838 6.51162C6.62579 6.64903 6.81118 6.72775 7.00548 6.73117C7.19978 6.7346 7.38783 6.66248 7.53 6.53L6.47 5.47ZM10.47 6.53C10.5387 6.60369 10.6215 6.66279 10.7135 6.70378C10.8055 6.74477 10.9048 6.76681 11.0055 6.76859C11.1062 6.77037 11.2062 6.75184 11.2996 6.71412C11.393 6.6764 11.4778 6.62026 11.549 6.54904C11.6203 6.47782 11.6764 6.39299 11.7141 6.2996C11.7518 6.20621 11.7704 6.10618 11.7686 6.00548C11.7668 5.90477 11.7448 5.80546 11.7038 5.71346C11.6628 5.62146 11.6037 5.53866 11.53 5.47L10.47 6.53ZM7.53 9.47C7.46134 9.39631 7.37854 9.33721 7.28654 9.29622C7.19454 9.25523 7.09522 9.23318 6.99452 9.23141C6.89382 9.22963 6.79379 9.24816 6.7004 9.28588C6.60701 9.3236 6.52218 9.37974 6.45096 9.45096C6.37974 9.52218 6.3236 9.60701 6.28588 9.7004C6.24816 9.79379 6.22963 9.89382 6.23141 9.99452C6.23318 10.0952 6.25523 10.1945 6.29622 10.2865C6.33721 10.3785 6.39631 10.4613 6.47 10.53L7.53 9.47ZM11.53 10.53C11.6037 10.4613 11.6628 10.3785 11.7038 10.2865C11.7448 10.1945 11.7668 10.0952 11.7686 9.99452C11.7704 9.89382 11.7518 9.79379 11.7141 9.7004C11.6764 9.60701 11.6203 9.52218 11.549 9.45096C11.4778 9.37974 11.393 9.3236 11.2996 9.28588C11.2062 9.24816 11.1062 9.22963 11.0055 9.23141C10.9048 9.23318 10.8055 9.25523 10.7135 9.29622C10.6215 9.33721 10.5387 9.39631 10.47 9.47L11.53 10.53ZM0.25 9V13H1.75V9H0.25ZM17.75 13V9H16.25V13H17.75ZM8.25 4V12H9.75V4H8.25ZM8.47 3.47L6.47 5.47L7.53 6.53L9.53 4.53L8.47 3.47ZM8.47 4.53L10.47 6.53L11.53 5.47L9.53 3.47L8.47 4.53ZM9.53 11.47L7.53 9.47L6.47 10.53L8.47 12.53L9.53 11.47ZM9.53 12.53L11.53 10.53L10.47 9.47L8.47 11.47L9.53 12.53ZM17.75 9C17.75 6.67936 16.8281 4.45376 15.1872 2.81282C13.5462 1.17187 11.3206 0.25 9 0.25V1.75C10.9228 1.75 12.7669 2.51384 14.1265 3.87348C15.4862 5.23311 16.25 7.07718 16.25 9H17.75ZM9 21.75C10.1491 21.75 11.2869 21.5237 12.3485 21.0839C13.4101 20.6442 14.3747 19.9997 15.1872 19.1872C15.9997 18.3747 16.6442 17.4101 17.0839 16.3485C17.5237 15.2869 17.75 14.1491 17.75 13H16.25C16.25 14.9228 15.4862 16.7669 14.1265 18.1265C12.7669 19.4862 10.9228 20.25 9 20.25V21.75ZM0.25 13C0.25 15.3206 1.17187 17.5462 2.81282 19.1872C4.45376 20.8281 6.67936 21.75 9 21.75V20.25C7.07718 20.25 5.23311 19.4862 3.87348 18.1265C2.51384 16.7669 1.75 14.9228 1.75 13H0.25ZM1.75 9C1.75 7.07718 2.51384 5.23311 3.87348 3.87348C5.23311 2.51384 7.07718 1.75 9 1.75V0.25C6.67936 0.25 4.45376 1.17187 2.81282 2.81282C1.17187 4.45376 0.25 6.67936 0.25 9H1.75Z" fill="#D1D5DB"/>
</svg>
